<?xml version="1.0" encoding="utf-8"?>
<!-- Generator: Adobe Illustrator 24.1.1, SVG Export Plug-In . SVG Version: 6.00 Build 0)  -->
<svg version="1.1" id="Layer_1" xmlns="http://www.w3.org/2000/svg" xmlns:xlink="http://www.w3.org/1999/xlink" x="0px" y="0px"
	 viewBox="0 0 1792 1792" style="enable-background:new 0 0 1792 1792;" xml:space="preserve">
<path fill="rgba(0,0,0,0.25)" d="M1758.4,772.8c0,111.7-38.5,214.8-115.5,309.4s-181.6,169.4-313.8,224.3c-132.2,54.9-276.6,82.3-433.1,82.3
	c-44.9,0-91.4-2.6-139.6-7.7C629.4,1493.4,481.8,1571,313.7,1614c-31.4,9-68,16-109.7,21.2h-4.8c-9.6,0-18.3-3.4-26-10.1
	c-7.7-6.7-12.8-15.6-15.4-26.5v-1c-1.9-2.6-2.1-6.4-0.5-11.6c1.6-5.1,2.2-8.3,1.9-9.6c-0.3-1.3,1.1-4.3,4.3-9.1l5.8-8.7l6.7-8.2
	l7.7-8.7c4.5-5.1,14.4-16.2,29.8-33.2c15.4-17,26.5-29.2,33.2-36.6s16.7-20.1,29.8-38c13.2-18,23.6-34.3,31.3-49.1
	c7.7-14.8,16.4-33.7,26-56.8c9.6-23.1,18-47.5,25-73.2c-100.7-57.1-180.2-127.7-238.2-211.8S33.6,869,33.6,772.8
	c0-111.7,38.5-214.8,115.5-309.4s181.6-169.4,313.8-224.3s276.6-82.3,433.1-82.3s300.9,27.4,433.1,82.3s236.8,129.6,313.8,224.3
	S1758.4,661.1,1758.4,772.8z"/>
</svg>
