<svg width="20" height="20" xmlns="http://www.w3.org/2000/svg">
 <title/>
 <desc/>

 <g>
  <title>background</title>
  <rect fill="none" id="canvas_background" height="402" width="582" y="-1" x="-1"/>
 </g>
 <g>
  <title>Layer 1</title>
  <path id="Shape" fill="rgb(0,0,0,0.6)" d="m17.172525,5.218747l-1.593837,0l0,7.172267l-10.359941,0l0,1.593838c0,0.478151 0.318763,0.796918 0.796919,0.796918l8.766104,0l3.187675,3.187675l0,-11.953778c0,-0.47815 -0.318762,-0.796919 -0.796919,-0.796919l0,0zm-3.187674,4.781511l0,-7.172267c0,-0.47815 -0.318763,-0.796919 -0.796919,-0.796919l-10.359941,0c-0.478156,0 -0.796919,0.318769 -0.796919,0.796919l0,11.15686l3.187674,-3.187675l7.969186,0c0.478156,0 0.796919,-0.318768 0.796919,-0.796919l0,0z"/>
 </g>
</svg>